PathFileType	4	(X/Y/Z)	./resultDataOpenSim/trcMotMarkerGrf/sub06/qtm-14-05.trc
DataRate	CameraRate	NumFrames	NumMarkers	Units	OrigDataRate	OrigDataStartFrame	OrigNumFrames
250.000000	250.000000	13	24	m	250.000000	340	543
Frame#	Time	L.Toe.Tip			R.Toe.Tip			L.Ankle.Lat			R.Ankle.Lat			L.Ankle.Med			R.Ankle.Med			L.Heel			R.Heel			L.Knee.Lat			R.Knee.Lat			L.Knee.Med			R.Knee.Med			L.Thigh.Upper			R.Thigh.Upper			L.ASIS			R.ASIS			V.Sacral			L.Acromium			R.Acromium			C7			L.Elbow			R.Elbow			L.Wrist.Lat			R.Wrist.Lat
		X1	Y1	Z1	X2	Y2	Z2	X3	Y3	Z3	X4	Y4	Z4	X5	Y5	Z5	X6	Y6	Z6	X7	Y7	Z7	X8	Y8	Z8	X9	Y9	Z9	X10	Y10	Z10	X11	Y11	Z11	X12	Y12	Z12	X13	Y13	Z13	X14	Y14	Z14	X15	Y15	Z15	X16	Y16	Z16	X17	Y17	Z17	X18	Y18	Z18	X19	Y19	Z19	X20	Y20	Z20	X21	Y21	Z21	X22	Y22	Z22	X23	Y23	Z23	X24	Y24	Z24

340	1.356	0.54289879	0.15387999	-0.11326638	0.88481483	0.035811428	-0.0039899382	0.54343262	0.28543298	-0.14389218	0.74891332	0.0586959	0.026049923	0.56881329	0.2906528	-0.063202621	0.76500089	0.084139876	-0.060413628	0.4975691	0.3417837	-0.090951649	0.6916251	0.038404152	-0.031116399	0.87850196	0.43803695	-0.19697899	0.83964401	0.43656974	0.077097147	0.88091563	0.42978474	-0.066924655	0.79042628	0.4367946	-0.04313413	0.71427054	0.79813456	-0.17576593	0.7531168	0.80110643	0.16589294	0.78878319	0.84941345	-0.13843348	0.82748769	0.86274858	0.10284677	0.62478262	0.92777041	0.011648621	0.77368984	1.3317706	-0.20498821	0.78831174	1.3189708	0.15623541	0.69994936	1.3666136	-0.022053857	0.77483948	1.0057356	-0.26505496	0.69590273	1.0149959	0.24392473	0.98593698	0.87542187	-0.23291454	0.89288343	0.86036976	0.27388463
341	1.36	0.55795603	0.15438756	-0.11511238	0.88474243	0.035824207	-0.0041284982	0.55601215	0.28586891	-0.14501561	0.74882094	0.058792415	0.026008909	0.58088008	0.29131136	-0.06412628	0.76481922	0.084196683	-0.060468877	0.50898524	0.34132909	-0.092083632	0.69152961	0.038430953	-0.031135394	0.88989657	0.44237566	-0.19617332	0.83983758	0.43667852	0.076662602	0.89184671	0.43415372	-0.065903906	0.79048763	0.4373873	-0.043603229	0.72152728	0.80098207	-0.17640804	0.75755526	0.80201453	0.16572407	0.79533878	0.85213937	-0.13798065	0.83225249	0.86445943	0.10304948	0.63083861	0.92932914	0.011789252	0.77894183	1.3335375	-0.20501378	0.79337662	1.3211318	0.15615317	0.7050759	1.3684288	-0.022103308	0.77709248	1.007843	-0.26522913	0.70371174	1.0162123	0.24429566	0.98592819	0.87357936	-0.23550808	0.90542998	0.8663089	0.27015168
342	1.364	0.57319788	0.15470307	-0.11698735	0.88468805	0.035831202	-0.0042883877	0.56861075	0.28604039	-0.14613721	0.74873481	0.058893823	0.025966497	0.59290876	0.29171292	-0.065031545	0.76464655	0.084253308	-0.060525158	0.52041162	0.34056557	-0.093243623	0.69144637	0.038474391	-0.031150574	0.90125554	0.44666794	-0.19529666	0.84004607	0.43677832	0.076247821	0.90259329	0.43851912	-0.064849695	0.79051681	0.43786447	-0.044055226	0.72877937	0.80380626	-0.17700253	0.76215757	0.8028808	0.16542362	0.80181525	0.85476458	-0.13760478	0.83709454	0.86605953	0.10320305	0.63697526	0.93072629	0.012181431	0.78417155	1.335234	-0.20503265	0.79845032	1.3232228	0.15608247	0.71021277	1.3701462	-0.022165816	0.77936521	1.0099297	-0.2653455	0.71159786	1.0173724	0.2447002	0.98584944	0.87176218	-0.23812236	0.91771022	0.87232954	0.26635875
343	1.368	0.58865574	0.15483461	-0.11890789	0.88465332	0.035834247	-0.0044634837	0.58125648	0.28592715	-0.14725892	0.74867407	0.058991657	0.025919805	0.60496268	0.29186094	-0.065963893	0.76448675	0.084309408	-0.060604696	0.53187036	0.33951044	-0.094425857	0.69137649	0.038536782	-0.031161252	0.9124804	0.45091714	-0.1944313	0.84026139	0.43686642	0.075860852	0.91310859	0.44288112	-0.063795183	0.79062843	0.43813065	-0.044516965	0.73604887	0.80661001	-0.17747736	0.76683926	0.80369727	0.16503702	0.80823204	0.85727808	-0.13729978	0.84207937	0.86756641	0.10331056	0.6430828	0.93196847	0.012782397	0.78937819	1.3368579	-0.20504851	0.80352405	1.3252387	0.15601654	0.71534925	1.3717781	-0.022229385	0.78164586	1.0119847	-0.26546959	0.71958658	1.0184864	0.24515263	0.98567985	0.86996532	-0.24076263	0.92973139	0.87840374	0.26253067
344	1.372	0.60427743	0.15477618	-0.1208411	0.8846382	0.035836001	-0.0046461784	0.59398764	0.28551767	-0.14838185	0.74865237	0.059081835	0.025868693	0.61708956	0.29175993	-0.066943124	0.76433932	0.084370518	-0.060710699	0.54338371	0.33818132	-0.095635288	0.69132142	0.038619065	-0.031167633	0.92355051	0.45511849	-0.19359586	0.84047491	0.43694327	0.075505127	0.92341391	0.44721593	-0.062754756	0.79068813	0.43827761	-0.045011478	0.74334069	0.80936746	-0.17783305	0.77142579	0.80440347	0.1647241	0.8147648	0.85971571	-0.13695854	0.84718849	0.86897821	0.10338816	0.64899714	0.93311551	0.013410549	0.79457082	1.3384066	-0.20506413	0.80858815	1.327173	0.15594769	0.72047323	1.3733325	-0.022284773	0.78391558	1.0140028	-0.26560042	0.72765559	1.0195573	0.24564835	0.98540172	0.86819247	-0.24343214	0.94152684	0.88451206	0.25870593
345	1.376	0.61994022	0.1545131	-0.12270745	0.88464215	0.035837142	-0.0048297744	0.60681217	0.28483636	-0.14950042	0.74866759	0.059167339	0.025816455	0.62932562	0.29140128	-0.067943915	0.76420364	0.084444685	-0.060817811	0.55496421	0.33658197	-0.096887219	0.6912814	0.038722792	-0.031169465	0.93447844	0.45925971	-0.1927722	0.84068556	0.43701636	0.075185396	0.93355702	0.45149898	-0.061802015	0.79049644	0.43853146	-0.045528069	0.75063574	0.81203489	-0.1781887	0.77581771	0.80496285	0.16460001	0.82153045	0.86210347	-0.13650902	0.85227611	0.87025462	0.10347577	0.6545936	0.93425366	0.013755908	0.79975568	1.3398757	-0.20507925	0.81364048	1.3290238	0.15587455	0.72557689	1.3748042	-0.022329023	0.78616972	1.0159809	-0.26572251	0.73577233	1.0205754	0.24616482	0.98501858	0.86645016	-0.24612644	0.95315708	0.89064356	0.25491541
346	1.38	0.63557917	0.15404413	-0.12446629	0.88466395	0.035836262	-0.0050091439	0.61971226	0.28393063	-0.15061415	0.74870687	0.059254627	0.025768298	0.64172317	0.29076685	-0.068930831	0.76408076	0.084536546	-0.060894929	0.56660624	0.33470846	-0.098183264	0.69125551	0.038851271	-0.031164232	0.94525432	0.46332739	-0.19194873	0.84091304	0.43709276	0.074909374	0.94367144	0.45572079	-0.061044567	0.79014494	0.43896125	-0.046006197	0.75790905	0.81459034	-0.17869137	0.7800522	0.80542755	0.1645632	0.82841749	0.8644259	-0.1360115	0.85718997	0.87134083	0.10360772	0.65994618	0.93544114	0.013617138	0.80492672	1.3412647	-0.20509477	0.81868706	1.3307943	0.15580203	0.73065726	1.376185	-0.022366167	0.78843216	1.0179174	-0.26584558	0.74393099	1.0215283	0.24668667	0.98456124	0.86474091	-0.24882818	0.96467571	0.89680701	0.25115963
347	1.384	0.65123177	0.15339094	-0.12614097	0.88470081	0.035832105	-0.0051811013	0.63267812	0.28283392	-0.15173491	0.74875772	0.059349767	0.025729822	0.65443638	0.28983231	-0.069929686	0.76397353	0.084643389	-0.060932742	0.57829778	0.33256295	-0.099504621	0.6912435	0.039007555	-0.031146798	0.95586707	0.46731217	-0.191119	0.8412163	0.43716809	0.074673647	0.95398093	0.4598745	-0.060539003	0.78997218	0.43932002	-0.046385497	0.7651469	0.81704543	-0.17936781	0.78429255	0.80591691	0.16429832	0.8352089	0.86665407	-0.13557696	0.86193704	0.87222508	0.10377781	0.66528897	0.93667102	0.013031156	0.81007758	1.3425799	-0.20511301	0.82373349	1.33249	0.15573668	0.73571569	1.3774727	-0.022403814	0.79072685	1.0198114	-0.26599989	0.75211776	1.0224043	0.24720905	0.98406575	0.86306426	-0.251517	0.97609499	0.90303226	0.2474159
348	1.388	0.66696138	0.1525854	-0.12776486	0.8847502	0.035823386	-0.005344053	0.6456899	0.28155538	-0.1528594	0.74881614	0.059455744	0.025706427	0.66760851	0.28859133	-0.070996111	0.76389357	0.08475512	-0.060944648	0.59004352	0.33015396	-0.10083487	0.69124649	0.039191292	-0.031111752	0.96634319	0.47120872	-0.19026843	0.84169787	0.43722885	0.074445223	0.96454975	0.46393182	-0.060192514	0.79017356	0.43933654	-0.046707933	0.77233062	0.81941194	-0.18012105	0.78864441	0.80648261	0.16362636	0.84176992	0.86878127	-0.13524631	0.86663645	0.87294393	0.10395859	0.67078716	0.93787686	0.012183293	0.81521428	1.343827	-0.20513267	0.82877784	1.3341154	0.15568339	0.74075749	1.3786686	-0.022444659	0.79304757	1.0216597	-0.26621717	0.7603077	1.0231991	0.2477245	0.9835477	0.8614186	-0.25418322	0.98740336	0.90934347	0.24366376
349	1.392	0.68279029	0.15164989	-0.12934289	0.88481216	0.035807008	-0.0054955091	0.65872496	0.28009515	-0.15396693	0.74888773	0.059571155	0.025702034	0.68106692	0.28710299	-0.072112807	0.76387052	0.084861221	-0.060949616	0.60186385	0.32748099	-0.10217177	0.69126708	0.039398505	-0.031056877	0.97673711	0.47501017	-0.18937531	0.84242652	0.43727391	0.074165272	0.97498332	0.46785648	-0.059795158	0.79062092	0.43908914	-0.047070564	0.77941248	0.82168272	-0.18086954	0.79303296	0.807039	0.16274781	0.84803596	0.87082714	-0.13499651	0.87135636	0.87353448	0.10413081	0.6764084	0.93898404	0.011252368	0.82034068	1.3450045	-0.20514944	0.83381311	1.33567	0.15564112	0.74578729	1.3797744	-0.022480181	0.79537407	1.0234583	-0.26652784	0.76850981	1.0239214	0.24821995	0.98300423	0.85980103	-0.2568188	0.99857357	0.91572113	0.23989321
350	1.396	0.69866888	0.15058464	-0.13084102	0.88488677	0.035779705	-0.0056303798	0.6718125	0.27845313	-0.15505476	0.74898299	0.059691205	0.025717288	0.69442728	0.28545819	-0.073204548	0.76394272	0.084961053	-0.060957364	0.61376907	0.32453068	-0.10351285	0.69130859	0.039624914	-0.030984135	0.98709539	0.4787017	-0.18842038	0.84326839	0.43733586	0.073799394	0.98468897	0.4716398	-0.059209101	0.79110956	0.43889783	-0.047470151	0.78635338	0.82385311	-0.18161084	0.79734313	0.80747625	0.16197225	0.85400757	0.87280545	-0.13479734	0.87612612	0.87403625	0.10426235	0.68201606	0.93996394	0.010328673	0.82544421	1.3461041	-0.20516291	0.83883395	1.3371401	0.15560143	0.75080572	1.3807901	-0.022498042	0.79770071	1.0252034	-0.26695207	0.77675507	1.02458	0.2486868	0.98242745	0.85821104	-0.25941373	1.009534	0.9221017	0.23607913
351	1.4	0.71450098	0.14937159	-0.13220625	0.88497048	0.035741635	-0.0057421844	0.68500611	0.27662455	-0.15613466	0.7491107	0.059810332	0.025749306	0.70752302	0.28369111	-0.074233081	0.76410185	0.085064395	-0.060957077	0.62575478	0.32130605	-0.10485768	0.69137176	0.0398694	-0.030897603	0.99743028	0.48226656	-0.18739869	0.84383282	0.43745664	0.073414833	0.99363577	0.47529246	-0.058448223	0.79158376	0.43897445	-0.047811858	0.7932305	0.82594301	-0.18232694	0.80155009	0.80776975	0.16140286	0.85986521	0.87468198	-0.1346233	0.88102323	0.87450417	0.10430412	0.68752491	0.94083752	0.0094258977	0.83051052	1.3471127	-0.20517595	0.84383947	1.3385054	0.15555496	0.75581249	1.3817135	-0.022497406	0.80004602	1.0268923	-0.26746673	0.7850487	1.0251754	0.24913309	0.9818091	0.85665625	-0.26197333	1.0202065	0.92843019	0.23216637
352	1.404	0.73027451	0.1480017	-0.13343727	0.88505758	0.035697112	-0.0058260562	0.69831378	0.27460107	-0.1572066	0.74927062	0.059926749	0.025792951	0.72045946	0.28178005	-0.075213125	0.76424152	0.085185913	-0.060912769	0.63783462	0.31783704	-0.10622366	0.69145219	0.040134471	-0.030801645	1.0077044	0.48570258	-0.18632676	0.84380439	0.43762513	0.073164075	1.0024476	0.47881505	-0.057578281	0.79209998	0.43931177	-0.04803827	0.80023696	0.82797599	-0.18293149	0.80568732	0.80796325	0.16097344	0.86588817	0.87639361	-0.13444813	0.88606212	0.87491496	0.10429226	0.69294842	0.94164155	0.0085323578	0.83554013	1.3480195	-0.20518696	0.84883279	1.3397562	0.15549899	0.7608077	1.3825441	-0.022491336	0.80244759	1.0285232	-0.26798651	0.7933769	1.0257063	0.24957095	0.981145	0.85515093	-0.26451411	1.0306006	0.93471359	0.22811613
